<svg width="137" height="48" xmlns="http://www.w3.org/2000/svg" xmlns:xlink="http://www.w3.org/1999/xlink"><defs><path id="a" d="M0 .062h18.979v36.812H0z"/><path id="c" d="M.12.108h26.852V36H.12z"/></defs><g fill="none" fill-rule="evenodd"><g transform="translate(0 2)"><mask id="b" fill="#fff"><use xlink:href="#a"/></mask><path d="M18.6 30.98c.253.214.379.49.379.82v3.93c0 .278-.115.52-.34.724-.224.2-.496.33-.82.38-.027.023-.08.04-.157.04h-4.433c-1.685-.056-3.074-.254-4.178-.592-1.104-.342-1.992-.852-2.657-1.527-.662-.672-1.138-1.522-1.42-2.535-.276-1.014-.418-2.229-.418-3.624V16.384H1.244A1.16 1.16 0 0 1 .36 16a1.28 1.28 0 0 1-.36-.91v-3.7c0-.353.122-.657.36-.894a1.14 1.14 0 0 1 .842-.368h3.715V1.209c0-.333.128-.606.38-.824.254-.215.564-.323.936-.323h4.679c.373 0 .682.108.934.323.252.218.382.491.382.824v8.919h5.355c.315 0 .595.132.838.383.24.252.353.56.353.914v3.664c0 .357-.113.66-.353.912-.243.257-.523.383-.838.383h-5.355v11.144c0 .46.016.863.06 1.22.042.356.148.668.34.933.186.27.444.484.778.65.337.164.805.274 1.419.324h2.837c.37 0 .685.11.939.325" fill="#FFF" fill-rule="nonzero" mask="url(#b)"/></g><path d="M45.64 12.35c.243.23.36.5.36.81v12.826c0 2.3-.174 4.272-.527 5.924-.358 1.65-.995 3-1.92 4.046-.923 1.047-2.194 1.815-3.812 2.306-1.62.489-3.677.738-6.182.738-2.502 0-4.572-.25-6.2-.738-1.631-.491-2.917-1.26-3.854-2.306-.933-1.045-1.588-2.385-1.95-4.03-.371-1.634-.555-3.601-.555-5.903V13.16c0-.311.127-.58.366-.811.24-.234.534-.35.889-.35h4.779c.353 0 .656.116.91.35.25.23.38.5.38.81v4.688c0 .03-.014.052-.037.08v8.248c0 .93.03 1.789.097 2.574.06.79.263 1.46.603 2.02.343.556.876.986 1.597 1.293.718.313 1.723.467 3.015.467 1.29 0 2.288-.154 2.994-.467.707-.307 1.234-.747 1.576-1.315.34-.567.542-1.246.609-2.035.064-.785.092-1.644.092-2.574V13.16c0-.311.117-.58.363-.811.236-.234.534-.35.889-.35h4.624c.358 0 .654.116.895.35M64.656 12c1.979 0 3.57.262 4.788.785 1.214.523 2.158 1.262 2.828 2.221.672.957 1.127 2.11 1.372 3.465.235 1.356.356 2.851.356 4.484v14.902c0 .303-.121.574-.356.807-.245.227-.54.336-.897.336h-4.67c-.356 0-.66-.109-.892-.336-.243-.233-.364-.504-.364-.807V24.411c0-.794-.048-1.536-.135-2.224-.09-.689-.29-1.275-.605-1.761-.32-.486-.797-.87-1.425-1.149-.636-.281-1.496-.421-2.582-.421-1.271 0-2.28.14-3.043.421-.761.279-1.35.686-1.766 1.208-.418.52-.697 1.145-.837 1.858a12.631 12.631 0 0 0-.208 2.372v13.142c0 .303-.121.574-.358.807a1.259 1.259 0 0 1-.896.336h-4.713c-.356 0-.651-.109-.892-.336a1.09 1.09 0 0 1-.361-.807V13.034c.052-.279.199-.518.437-.714a1.31 1.31 0 0 1 .816-.282h4.713c.357 0 .65.11.896.321.237.224.358.493.358.828v1.607c.332-.384.633-.747.91-1.093.28-.342.697-.638 1.239-.877.542-.241 1.293-.441 2.258-.597.962-.152 2.308-.227 4.029-.227M86 37.84c0 .31-.12.578-.369.812-.241.235-.543.348-.904.348h-5.418c-.359 0-.664-.113-.924-.348-.258-.234-.385-.501-.385-.811V13.155c0-.306.127-.578.385-.807.26-.234.565-.348.924-.348h5.418c.361 0 .663.114.904.348.249.229.369.5.369.807V37.84z" fill="#FFF" fill-rule="nonzero"/><g transform="translate(110 12)"><mask id="d" fill="#fff"><use xlink:href="#c"/></mask><path d="M.195 1.274C.075.97.101.702.271.464.443.229.705.108 1.052.108h5.403c.345 0 .674.112.983.34.316.224.527.49.653.79l1.75 4.859c.024.05.038.084.038.092 0 .016.01.045.038.096l3.946 10.396 5.585-15.443c.123-.3.34-.566.653-.79.31-.228.64-.34.985-.34h4.951c.346 0 .61.121.78.356.177.238.2.507.08.81L16.84 28.58a151.32 151.32 0 0 1-1.374 2.859 8.516 8.516 0 0 1-1.755 2.396c-.719.687-1.645 1.228-2.772 1.619-1.128.388-2.615.568-4.45.543H4.663c-.349 0-.638-.104-.874-.32-.238-.21-.35-.48-.35-.81V30.77c0-.33.112-.603.35-.814.236-.212.525-.32.874-.32H5.71c.667 0 1.226-.063 1.675-.191.445-.121.814-.29 1.098-.507a2.89 2.89 0 0 0 .687-.751c.206-.322.331-.542.483-.997.19-.567.264-1.322.264-1.322L.234 1.353l-.039-.08z" fill="#FFF" fill-rule="nonzero" mask="url(#d)"/></g><path d="M86 2.864C86 3.49 85.468 4 84.813 4h-5.624C78.532 4 78 3.49 78 2.864v-.791c0-.628.532-1.136 1.189-1.136h5.624c.655 0 1.187.508 1.187 1.136v.79z" fill="#7BBA58" fill-rule="nonzero"/><path d="M86 7.805A1.19 1.19 0 0 1 84.813 9h-5.624A1.191 1.191 0 0 1 78 7.805v-1.61C78 5.536 78.532 5 79.189 5h5.624C85.468 5 86 5.535 86 6.196v1.609z" fill="#04B4E0" fill-rule="nonzero"/><path d="M103.76 8.206c-.49.27-.87.623-1.142 1.06a4.085 4.085 0 0 0-.564 1.478c-.1.551-.15 1.283-.15 1.283h4.937c.352 0 .647.106.882.323.237.22.352.488.352.79v3.656c0 .334-.115.61-.352.827a1.26 1.26 0 0 1-.882.324h-4.937v19.848c0 .309-.126.578-.374.809a1.28 1.28 0 0 1-.9.346h-5.345a1.22 1.22 0 0 1-.882-.346c-.236-.23-.355-.5-.355-.808V17.947H90.27c-.345 0-.647-.109-.896-.324a1.041 1.041 0 0 1-.374-.827v-3.657c0-.3.122-.569.374-.789.249-.217.551-.323.896-.323h3.778s.169-2.245.506-3.51a9.334 9.334 0 0 1 1.681-3.406c.79-1.002 1.837-1.808 3.144-2.424 1.309-.616 2.95-.943 4.918-1 .449 0 .792-.004 1.029-.019.237-.014.436-.018.603-.018h.954c.344 0 .644.101.895.304a.996.996 0 0 1 .376.81v3.887c0 .305-.124.576-.376.808-.251.23-.551.345-.895.345h-1.273c-.75 0-1.37.13-1.85.402" fill="#FFF" fill-rule="nonzero"/></g></svg>